<svg width="24" height="24" viewBox="0 0 24 24" fill="none" xmlns="http://www.w3.org/2000/svg">
<path fill-rule="evenodd" clip-rule="evenodd" d="M19.5656 4.43432C19.8781 4.74673 19.8781 5.25327 19.5656 5.56569L5.56564 19.5657C5.25322 19.8781 4.74669 19.8781 4.43427 19.5657C4.12185 19.2533 4.12185 18.7467 4.43427 18.4343L18.4343 4.43432C18.7467 4.1219 19.2532 4.1219 19.5656 4.43432Z" fill="#727E91"/>
<path fill-rule="evenodd" clip-rule="evenodd" d="M4.43427 4.43431C4.74668 4.12189 5.25322 4.12189 5.56564 4.43431L19.5656 18.4343C19.8781 18.7467 19.8781 19.2533 19.5656 19.5657C19.2532 19.8781 18.7467 19.8781 18.4343 19.5657L4.43427 5.56569C4.12185 5.25327 4.12185 4.74673 4.43427 4.43431Z" fill="#727E91"/>
</svg>
