<svg width="18" height="18" viewBox="0 0 18 18" fill="none" xmlns="http://www.w3.org/2000/svg">
<path fill-rule="evenodd" clip-rule="evenodd" d="M0.399902 2.1999C0.399902 1.20579 1.20579 0.399902 2.1999 0.399902H6.47451C7.46863 0.399902 8.27451 1.20579 8.27451 2.1999V6.47451C8.27451 7.46863 7.46863 8.27451 6.47451 8.27451H2.1999C1.20579 8.27451 0.399902 7.46863 0.399902 6.47451V2.1999ZM2.1999 1.9999C2.08945 1.9999 1.9999 2.08945 1.9999 2.1999V6.47451C1.9999 6.58497 2.08945 6.67451 2.1999 6.67451H6.47451C6.58497 6.67451 6.67451 6.58497 6.67451 6.47451V2.1999C6.67451 2.08945 6.58497 1.9999 6.47451 1.9999H2.1999Z" fill="white"/>
<path fill-rule="evenodd" clip-rule="evenodd" d="M0.399902 11.6115C0.399902 10.6174 1.20579 9.81152 2.1999 9.81152H6.47451C7.46863 9.81152 8.27451 10.6174 8.27451 11.6115V15.8861C8.27451 16.8802 7.46863 17.6861 6.47451 17.6861H2.1999C1.20579 17.6861 0.399902 16.8802 0.399902 15.8861V11.6115ZM2.1999 11.4115C2.08945 11.4115 1.9999 11.5011 1.9999 11.6115V15.8861C1.9999 15.9966 2.08945 16.0861 2.1999 16.0861H6.47451C6.58497 16.0861 6.67451 15.9966 6.67451 15.8861V11.6115C6.67451 11.5011 6.58497 11.4115 6.47451 11.4115H2.1999Z" fill="white"/>
<path fill-rule="evenodd" clip-rule="evenodd" d="M9.81152 2.1999C9.81152 1.20579 10.6174 0.399902 11.6115 0.399902H15.8861C16.8802 0.399902 17.6861 1.20579 17.6861 2.1999V6.47451C17.6861 7.46863 16.8802 8.27451 15.8861 8.27451H11.6115C10.6174 8.27451 9.81152 7.46863 9.81152 6.47451V2.1999ZM11.6115 1.9999C11.5011 1.9999 11.4115 2.08945 11.4115 2.1999V6.47451C11.4115 6.58497 11.5011 6.67451 11.6115 6.67451H15.8861C15.9966 6.67451 16.0861 6.58497 16.0861 6.47451V2.1999C16.0861 2.08945 15.9966 1.9999 15.8861 1.9999H11.6115Z" fill="white"/>
<path fill-rule="evenodd" clip-rule="evenodd" d="M9.60254 13.8013C9.60254 11.4824 11.4824 9.60254 13.8013 9.60254C16.1202 9.60254 18 11.4824 18 13.8013C18 16.1202 16.1202 18 13.8013 18C11.4824 18 9.60254 16.1202 9.60254 13.8013ZM13.8013 11.2025C12.366 11.2025 11.2025 12.366 11.2025 13.8013C11.2025 15.2365 12.366 16.4 13.8013 16.4C15.2365 16.4 16.4 15.2365 16.4 13.8013C16.4 12.366 15.2365 11.2025 13.8013 11.2025Z" fill="white"/>
</svg>
