<svg width="24" height="24" viewBox="0 0 24 24" fill="none" xmlns="http://www.w3.org/2000/svg">
<path d="M10.5 4.5L9.75 5.25H6V6.75H6.75L6.75 18C6.75 18.3917 6.8935 18.791 7.17627 19.0737C7.45904 19.3565 7.85833 19.5 8.25 19.5H15.75C16.1417 19.5 16.541 19.3565 16.8237 19.0737C17.1065 18.791 17.25 18.3917 17.25 18V6.75H18V5.25L14.25 5.25L13.5 4.5H10.5ZM8.25 6.75L15.75 6.75L15.75 18H8.25L8.25 6.75ZM9.75 8.25L9.75 16.5H11.25L11.25 8.25H9.75ZM12.75 8.25L12.75 16.5H14.25L14.25 8.25H12.75Z" fill="white"/>
</svg>
