<svg width="20" height="16" viewBox="0 0 20 16" fill="none" xmlns="http://www.w3.org/2000/svg">
<path fill-rule="evenodd" clip-rule="evenodd" d="M0 1.1999C0 0.758075 0.358172 0.399902 0.8 0.399902H19.2C19.6418 0.399902 20 0.758075 20 1.1999C20 1.64173 19.6418 1.9999 19.2 1.9999H0.8C0.358172 1.9999 0 1.64173 0 1.1999Z" fill="white"/>
<path fill-rule="evenodd" clip-rule="evenodd" d="M0 8.1999C0 7.75807 0.358172 7.3999 0.8 7.3999H19.2C19.6418 7.3999 20 7.75807 20 8.1999C20 8.64173 19.6418 8.9999 19.2 8.9999H0.8C0.358172 8.9999 0 8.64173 0 8.1999Z" fill="white"/>
<path fill-rule="evenodd" clip-rule="evenodd" d="M0 15.1989C0 14.7571 0.358172 14.3989 0.8 14.3989H19.2C19.6418 14.3989 20 14.7571 20 15.1989C20 15.6408 19.6418 15.9989 19.2 15.9989H0.8C0.358172 15.9989 0 15.6408 0 15.1989Z" fill="white"/>
</svg>
