<svg width="24" height="24" viewBox="0 0 24 24" fill="none" xmlns="http://www.w3.org/2000/svg">
<rect width="24" height="24" rx="8" fill="white"/>
<path d="M9.51523 16.2199L6.61195 11.1913C6.53958 11.0659 6.50146 10.9237 6.50146 10.779C6.50146 10.6342 6.53958 10.492 6.61195 10.3667L9.51523 5.34052C9.58761 5.21516 9.69171 5.11107 9.81708 5.03869C9.94244 4.96632 10.0847 4.92822 10.2294 4.92822H16.0335C16.1783 4.92822 16.3205 4.96632 16.4459 5.03869C16.5712 5.11107 16.6753 5.21516 16.7477 5.34052L19.6608 10.3716L18.2325 11.1962L15.5672 6.58234H10.7055L8.27833 10.7839L10.9436 15.4002L9.51523 16.2199Z" fill="#1A1D26" stroke="#1A1D26" stroke-width="0.2"/>
<path d="M13.7708 18.9562H7.95435C7.8096 18.9562 7.6674 18.9181 7.54204 18.8457C7.41668 18.7734 7.31257 18.6693 7.24019 18.5439L4.33936 13.5202L5.76523 12.6956L8.43046 17.3119H13.2799L15.7046 13.1079L13.0419 8.49405L14.4677 7.66943L17.371 12.6956C17.4434 12.821 17.4815 12.9632 17.4815 13.1079C17.4815 13.2526 17.4434 13.3948 17.371 13.5202L14.4677 18.5488C14.3966 18.6711 14.295 18.7729 14.1729 18.8443C14.0507 18.9156 13.9122 18.9542 13.7708 18.9562Z" fill="#1A1D26" stroke="#1A1D26" stroke-width="0.2"/>
</svg>

 