<svg width="112" height="14" viewBox="0 0 112 14" fill="none" xmlns="http://www.w3.org/2000/svg">
<g clip-path="url(#clip0_4467_5383)">
<path d="M8.85468 10.454L8.92523 10.3746L7.88452 9.3692L7.80956 9.44858C7.4782 9.80578 7.07517 10.089 6.62683 10.2797C6.17848 10.4705 5.69493 10.5644 5.20778 10.5554C4.55786 10.5647 3.91666 10.4051 3.34684 10.0924C2.79678 9.79973 2.33878 9.36006 2.02391 8.82239C1.71739 8.26669 1.55663 7.64239 1.55663 7.00775C1.55663 6.37312 1.71739 5.74883 2.02391 5.19313C2.33878 4.65546 2.79678 4.21578 3.34684 3.9231C3.91666 3.61039 4.55786 3.45085 5.20778 3.46008C5.69386 3.44996 6.17665 3.54207 6.62485 3.73047C7.07306 3.91887 7.47668 4.19934 7.80956 4.5537L7.88452 4.63749L8.92523 3.62765L8.85468 3.54827C8.41012 3.04935 7.85623 2.65998 7.23628 2.41055C6.57308 2.15231 5.86652 2.02358 5.15486 2.03131C4.23259 2.01821 3.32212 2.23976 2.50898 2.67514C1.74337 3.08469 1.10326 3.69433 0.656866 4.43905C0.220402 5.21846 -0.00878906 6.09683 -0.00878906 6.99012C-0.00878906 7.88342 0.220402 8.76178 0.656866 9.54119C1.0998 10.2856 1.73701 10.8954 2.50016 11.3051C3.22267 11.6825 4.0177 11.9007 4.83166 11.9448C5.64562 11.9889 6.45957 11.858 7.21864 11.5609C7.84176 11.3225 8.40157 10.9437 8.85468 10.454Z" fill="white"/>
<path d="M18.9932 4.01155L21.6391 1.36567L20.6645 0.395508L18.0186 3.04139C17.8359 2.90669 17.6444 2.78442 17.4453 2.67538C16.6282 2.25024 15.7206 2.02827 14.7995 2.02827C13.8783 2.02827 12.9707 2.25024 12.1536 2.67538C11.3845 3.0937 10.743 3.71236 10.2971 4.46575C9.85511 5.24095 9.62269 6.11788 9.62269 7.0102C9.62269 7.90253 9.85511 8.77947 10.2971 9.55466C10.4474 9.79968 10.6186 10.0313 10.8086 10.247L8.40967 12.6459L9.37982 13.6205L11.8493 11.1466C11.9507 11.2127 12.0478 11.2833 12.1536 11.3406C12.9707 11.7658 13.8783 11.9877 14.7995 11.9877C15.7206 11.9877 16.6282 11.7658 17.4453 11.3406C18.2128 10.9336 18.8535 10.3234 19.2975 9.57671C19.7339 8.7973 19.9631 7.91894 19.9631 7.02564C19.9631 6.13234 19.7339 5.25398 19.2975 4.47457C19.2042 4.31502 19.1026 4.16047 18.9932 4.01155ZM17.9172 5.19337C18.2237 5.74907 18.3845 6.37336 18.3845 7.00799C18.3845 7.64263 18.2237 8.26693 17.9172 8.82263C17.613 9.35453 17.1713 9.79474 16.6383 10.0971C16.0772 10.4011 15.4463 10.5531 14.8083 10.538C14.164 10.5466 13.5287 10.387 12.965 10.075L12.9297 10.053L17.8731 5.10958C17.8863 5.15368 17.904 5.17132 17.9172 5.19337ZM11.9022 9.16218C11.8182 9.05679 11.743 8.9447 11.6773 8.82704C11.368 8.27225 11.2056 7.6476 11.2056 7.01241C11.2056 6.37721 11.368 5.75257 11.6773 5.19778C11.9811 4.66374 12.4268 4.22418 12.965 3.92776C13.5288 3.61612 14.1641 3.45655 14.8083 3.46474C15.4485 3.45495 16.0798 3.61469 16.6383 3.92776C16.7426 3.9872 16.8428 4.0535 16.9382 4.1262L11.9022 9.16218Z" fill="white"/>
<path d="M26.8422 6.85161C26.2668 6.63821 25.6774 6.46436 25.0783 6.33126C24.5315 6.20338 24.0949 6.0843 23.7774 5.97405C23.494 5.88157 23.2327 5.73143 23.0101 5.53307C22.9121 5.44265 22.8353 5.33178 22.785 5.20831C22.7347 5.08485 22.7122 4.95183 22.7191 4.81869C22.7164 4.62148 22.7634 4.42678 22.8559 4.25258C22.9484 4.07838 23.0834 3.93032 23.2482 3.82208C23.7503 3.51835 24.3343 3.37812 24.9195 3.42079C25.8232 3.43124 26.706 3.69395 27.4684 4.17928L27.5831 4.24984L28.1122 2.95776L28.0417 2.90484C27.604 2.60849 27.1173 2.39201 26.6041 2.26543C26.0544 2.11983 25.4882 2.04572 24.9195 2.04494C24.21 2.0228 23.5038 2.15051 22.8469 2.41976C22.336 2.6308 21.8967 2.98443 21.5813 3.43842C21.3032 3.8643 21.1574 4.36299 21.1624 4.8716C21.132 5.42325 21.3099 5.9662 21.6607 6.39299C21.9784 6.76068 22.3811 7.04527 22.8337 7.22203C23.4095 7.43452 23.9987 7.60835 24.5976 7.74239C25.1621 7.87468 25.6075 7.99816 25.9206 8.10399C26.1984 8.19715 26.4538 8.34736 26.6702 8.54497C26.766 8.63688 26.8411 8.74812 26.8905 8.87129C26.9399 8.99447 26.9625 9.12676 26.9569 9.25936C26.9603 9.45527 26.9124 9.64866 26.818 9.82038C26.7237 9.99209 26.5861 10.1362 26.4189 10.2383C25.8984 10.5266 25.3058 10.6582 24.7123 10.6176C24.1292 10.6184 23.5503 10.5184 23.0013 10.3221C22.5039 10.1538 22.0441 9.89014 21.6475 9.54599L21.5372 9.44898L20.9375 10.7146L20.9948 10.7719C21.4636 11.1755 22.012 11.476 22.6044 11.6539C23.2842 11.8798 23.996 11.9944 24.7123 11.9934C25.4254 12.0118 26.1349 11.8858 26.7981 11.623C27.3164 11.4164 27.7626 11.0622 28.0814 10.6043C28.3676 10.1828 28.5212 9.68516 28.5223 9.17557C28.5472 8.6314 28.3697 8.0973 28.024 7.67624C27.703 7.30938 27.2973 7.02634 26.8422 6.85161Z" fill="white"/>
<path d="M39.3179 2.1416L35.4638 8.72543L31.592 2.19452L31.5567 2.1416H30.269V11.8784H31.7948V5.27256L35.0625 10.7231H35.8166L39.0842 5.23287L39.0975 11.8784H40.6232L40.6056 2.1416H39.3179Z" fill="white"/>
<path d="M50.2982 2.67543C49.4811 2.25029 48.5735 2.02832 47.6523 2.02832C46.7312 2.02832 45.8236 2.25029 45.0065 2.67543C44.2374 3.09375 43.5959 3.71241 43.1499 4.46581C42.708 5.241 42.4756 6.11793 42.4756 7.01025C42.4756 7.90258 42.708 8.77952 43.1499 9.55472C43.5965 10.3065 44.238 10.9236 45.0065 11.3407C45.8236 11.7658 46.7312 11.9878 47.6523 11.9878C48.5735 11.9878 49.4811 11.7658 50.2982 11.3407C51.0657 10.9337 51.7064 10.3235 52.1503 9.57676C52.5897 8.7983 52.8205 7.91957 52.8205 7.02569C52.8205 6.13181 52.5897 5.25308 52.1503 4.47462C51.7103 3.71592 51.0694 3.09335 50.2982 2.67543ZM51.2375 7.01025C51.2447 7.6451 51.0834 8.27051 50.7701 8.82269C50.4659 9.35458 50.0242 9.79479 49.4912 10.0971C48.9271 10.3997 48.2969 10.5581 47.6568 10.5581C47.0166 10.5581 46.3864 10.3997 45.8223 10.0971C45.2829 9.80079 44.8358 9.3613 44.5302 8.82709C44.2237 8.27138 44.0629 7.6471 44.0629 7.01246C44.0629 6.37783 44.2237 5.75354 44.5302 5.19783C44.8358 4.66362 45.2829 4.22413 45.8223 3.92781C46.3844 3.61577 47.0183 3.45615 47.6612 3.46479C48.3014 3.45458 48.9329 3.61435 49.4912 3.92781C50.0249 4.22716 50.467 4.66621 50.7701 5.19783C51.0826 5.75032 51.2439 6.37551 51.2375 7.01025Z" fill="white"/>
<path d="M59.6864 6.85161C59.1106 6.63913 58.5214 6.46529 57.9225 6.33126C57.3756 6.20338 56.9391 6.0843 56.6216 5.97405C56.3381 5.88157 56.0769 5.73143 55.8543 5.53307C55.7563 5.44265 55.6794 5.33178 55.6291 5.20831C55.5788 5.08485 55.5563 4.95183 55.5632 4.81869C55.5605 4.62148 55.6076 4.42678 55.7001 4.25258C55.7926 4.07838 55.9275 3.93032 56.0924 3.82208C56.5945 3.51835 57.1785 3.37812 57.7637 3.42079C58.2117 3.42174 58.6572 3.48708 59.0867 3.61482C59.5292 3.74158 59.951 3.9317 60.339 4.17928L60.4493 4.24984L60.9829 2.95776L60.9079 2.90484C60.4713 2.60936 59.9862 2.39294 59.4747 2.26543C58.9236 2.11945 58.3559 2.04534 57.7858 2.04494C57.0762 2.0228 56.37 2.15051 55.7131 2.41976C55.2022 2.6308 54.7629 2.98443 54.4475 3.43842C54.1694 3.8643 54.0237 4.36299 54.0286 4.8716C53.9982 5.42325 54.1761 5.9662 54.5269 6.39299C54.8454 6.75976 55.2479 7.04418 55.6999 7.22203C56.2757 7.43452 56.8649 7.60835 57.4638 7.74239C58.0283 7.87468 58.4737 7.99816 58.7868 8.10399C59.0647 8.19715 59.32 8.34736 59.5364 8.54497C59.6322 8.63688 59.7073 8.74812 59.7567 8.87129C59.8061 8.99447 59.8288 9.12676 59.8231 9.25936C59.8265 9.45527 59.7786 9.64866 59.6842 9.82038C59.5899 9.99209 59.4523 10.1362 59.2851 10.2383C58.7647 10.5266 58.172 10.6582 57.5785 10.6176C56.9968 10.6187 56.4193 10.5188 55.8719 10.3221C55.3728 10.1547 54.9113 9.89101 54.5137 9.54599L54.4034 9.44898L53.8037 10.7146L53.861 10.7719C54.3298 11.1755 54.8782 11.476 55.4706 11.6539C56.1504 11.8798 56.8622 11.9944 57.5785 11.9934C58.2916 12.0118 59.0011 11.8858 59.6643 11.623C60.1831 11.4152 60.6303 11.0613 60.952 10.6043C61.2385 10.1829 61.3921 9.6852 61.393 9.17557C61.419 8.63197 61.2431 8.09794 60.8991 7.67624C60.567 7.30794 60.151 7.02508 59.6864 6.85161Z" fill="white"/>
<path d="M69.7102 2.1416H61.6138V3.54392H64.877V11.8784H66.4469V3.54392H69.7102V2.1416Z" fill="white"/>
<path d="M73.401 2.13721L68.9912 11.8917H70.6361L71.6812 9.51039H76.5981L77.6432 11.8917H79.3145L74.9047 2.15044L73.401 2.13721ZM76.0248 8.19185H72.2545L74.1374 3.90994L76.0248 8.19185Z" fill="white"/>
<path d="M78.6001 3.54392H81.8633V11.8784H83.4288V3.54392H86.6921V2.1416H78.6001V3.54392Z" fill="white"/>
<path d="M89.5323 2.1416H87.9536V11.8828H89.5323V2.1416Z" fill="white"/>
<path d="M99.2118 2.67543C98.3947 2.25029 97.4871 2.02832 96.566 2.02832C95.6448 2.02832 94.7372 2.25029 93.9201 2.67543C93.1494 3.09311 92.5063 3.71183 92.0591 4.46581C91.6172 5.241 91.3848 6.11793 91.3848 7.01025C91.3848 7.90258 91.6172 8.77952 92.0591 9.55471C92.5069 10.3071 93.15 10.9242 93.9201 11.3407C94.7366 11.768 95.6444 11.9912 96.566 11.9912C97.4875 11.9912 98.3953 11.768 99.2118 11.3407C99.9793 10.9337 100.62 10.3235 101.064 9.57676C101.503 8.7983 101.734 7.91957 101.734 7.02569C101.734 6.13181 101.503 5.25308 101.064 4.47462C100.624 3.71592 99.983 3.09335 99.2118 2.67543ZM100.151 7.01025C100.155 7.63913 99.994 8.25806 99.6837 8.80504C99.3807 9.33666 98.9385 9.77572 98.4048 10.0751C97.8407 10.3777 97.2105 10.536 96.5704 10.536C95.9302 10.536 95.3 10.3777 94.7359 10.0751C94.1965 9.77874 93.7494 9.33926 93.4438 8.80504C93.1373 8.24934 92.9765 7.62505 92.9765 6.99042C92.9765 6.35578 93.1373 5.73148 93.4438 5.17578C93.7494 4.64156 94.1965 4.20209 94.7359 3.90577C95.2994 3.59317 95.9349 3.43352 96.5792 3.44273C97.218 3.43288 97.8479 3.59267 98.4048 3.90577C98.9385 4.20511 99.3807 4.64415 99.6837 5.17578C100 5.73475 100.161 6.36805 100.151 7.01025Z" fill="white"/>
<path d="M110.417 2.1416V9.03411L104.904 2.18129L104.869 2.1416H103.59V11.8784H105.173V4.98592L110.686 11.8387L110.721 11.8784H112V2.1416H110.417Z" fill="white"/>
</g>
<defs>
<clipPath id="clip0_4467_5383">
<rect width="112" height="13.2206" fill="white" transform="translate(0 0.399902)"/>
</clipPath>
</defs>
</svg>
