<svg width="151" height="144" viewBox="0 0 151 144" fill="none" xmlns="http://www.w3.org/2000/svg">
<path d="M65.5008 6.07064C70.2475 -1.08349 80.7525 -1.08348 85.4992 6.07065L103.372 33.0086C104.967 35.4118 107.374 37.1604 110.152 37.9342L141.294 46.6083C149.565 48.9119 152.812 58.9028 147.474 65.6279L127.378 90.9506C125.585 93.2097 124.666 96.0389 124.788 98.9203L126.162 131.219C126.527 139.797 118.029 145.972 109.983 142.974L79.6899 131.686C76.9874 130.679 74.0126 130.679 71.3101 131.686L41.0166 142.974C32.9714 145.972 24.4726 139.797 24.8375 131.219L26.2117 98.9203C26.3342 96.0389 25.415 93.2097 23.6221 90.9506L3.52566 65.6279C-1.81152 58.9028 1.43474 48.9119 9.70553 46.6083L40.8482 37.9342C43.6265 37.1604 46.0332 35.4118 47.6277 33.0086L65.5008 6.07064Z" fill="white"/>
</svg>
